<svg width="20" height="20" viewBox="0 0 20 20" fill="none" xmlns="http://www.w3.org/2000/svg">
<path d="M9.99996 18.3333C14.6023 18.3333 18.3333 14.6024 18.3333 10C18.3333 5.39763 14.6023 1.66667 9.99996 1.66667C5.39759 1.66667 1.66663 5.39763 1.66663 10C1.66663 14.6024 5.39759 18.3333 9.99996 18.3333Z" fill="#FFB190"/>
<path d="M11.6605 5.83333H10.2453C9.40557 5.83333 8.47151 6.16574 8.47151 7.31138C8.47561 7.71056 8.47151 8.09286 8.47151 8.52312H7.5V9.97808H8.50157V14.1667H10.342V9.95044H11.5568L11.6667 8.51904H10.3103C10.3103 8.51904 10.3133 7.88229 10.3103 7.69737C10.3103 7.24464 10.8108 7.27057 10.8409 7.27057C11.0791 7.27057 11.5423 7.27122 11.6612 7.27057L11.6605 5.83333Z" fill="white"/>
</svg>
