<svg width="20" height="20" viewBox="0 0 20 20" fill="none" xmlns="http://www.w3.org/2000/svg">
<path d="M10.5 1C8.77669 1.00214 7.12451 1.76142 5.90594 3.11125C4.68738 4.46109 4.00194 6.29124 4 8.20019C4 11.1298 5.91994 13.5625 7.95362 16.1375C8.59713 16.9529 9.26337 17.7962 9.8565 18.6495C9.9324 18.7585 10.0299 18.8469 10.1414 18.9076C10.253 18.9684 10.3757 19 10.5 19C10.6243 19 10.747 18.9684 10.8586 18.9076C10.9701 18.8469 11.0676 18.7585 11.1435 18.6495C11.7366 17.7962 12.4029 16.9529 13.0464 16.1375C15.0801 13.5625 17 11.1298 17 8.20019C16.9981 6.29124 16.3126 4.46109 15.0941 3.11125C13.8755 1.76142 12.2233 1.00214 10.5 1ZM10.5 10.9003C10.0179 10.9003 9.54664 10.7419 9.1458 10.4452C8.74495 10.1485 8.43253 9.72683 8.24804 9.23346C8.06355 8.74009 8.01528 8.19719 8.10934 7.67343C8.20339 7.14967 8.43554 6.66856 8.77643 6.29095C9.11732 5.91334 9.55164 5.65618 10.0245 5.552C10.4973 5.44782 10.9874 5.50129 11.4328 5.70565C11.8782 5.91001 12.2589 6.25608 12.5267 6.70011C12.7945 7.14413 12.9375 7.66616 12.9375 8.20019C12.9375 8.91629 12.6807 9.60306 12.2236 10.1094C11.7665 10.6158 11.1465 10.9003 10.5 10.9003Z" fill="#FFB190"/>
</svg>
