<svg width="20" height="20" viewBox="0 0 20 20" fill="none" xmlns="http://www.w3.org/2000/svg">
<mask id="mask0_152_17835" style="mask-type:luminance" maskUnits="userSpaceOnUse" x="1" y="1" width="18" height="18">
<path d="M18.3333 1.66667H1.66663V18.3333H18.3333V1.66667Z" fill="white"/>
</mask>
<g mask="url(#mask0_152_17835)">
<path d="M16.3802 1.66667H3.61975C2.54107 1.66667 1.66663 2.54112 1.66663 3.6198V16.3802C1.66663 17.4589 2.54107 18.3333 3.61975 18.3333H16.3802C17.4588 18.3333 18.3333 17.4589 18.3333 16.3802V3.6198C18.3333 2.54112 17.4588 1.66667 16.3802 1.66667Z" fill="#FFB190"/>
<path d="M12.9954 4.79167H14.5927L11.103 9.20406L15.2083 15.2083H11.9939L9.47629 11.5668L6.59557 15.2083H4.99732L8.7298 10.4888L4.79163 4.79167H8.0876L10.3633 8.1202L12.9954 4.79167ZM12.4348 14.1506H13.3198L7.60667 5.79381H6.65689L12.4348 14.1506Z" fill="white"/>
</g>
</svg>
